<?xml version="1.0" encoding="utf-8"?>
<!-- Generator: Adobe Illustrator 23.1.1, SVG Export Plug-In . SVG Version: 6.00 Build 0)  -->
<svg version="1.1" id="Livello_1" xmlns="http://www.w3.org/2000/svg" xmlns:xlink="http://www.w3.org/1999/xlink" x="0px" y="0px"
	 viewBox="0 0 321 116" enable-background="new 0 0 321 116" xml:space="preserve">
<g>
	<g>
		<path fill="#FFFFFF" d="M35.56,16.801c0,7.743,6.277,14.02,14.02,14.02c7.743,0,14.02-6.277,14.02-14.02
			c0-7.743-6.277-14.02-14.02-14.02C41.837,2.781,35.56,9.058,35.56,16.801z"/>
		<path fill="#FFFFFF" d="M37.987,32.389l2.585-1.486l0.323,2.909L28.937,57.727c0,0-3.296,7.239-0.905,15.384
			c2.391,8.145,9.502,17.065,20.038,17.388c10.536,0.323,19.326-4.848,23.269-18.745c0,0,2.327-8.144-1.81-15.255L57.959,33.746
			l0.388-2.973l2.715,1.551l11.829,23.658c0,0,5.171,9.631,0,20.814C67.72,87.977,58.09,92.049,48.071,92.049
			c-10.02,0-20.75-9.113-23.27-18.939c-2.521-9.825,0.949-16.118,2.327-19.198L37.987,32.389z"/>
		<path fill="#FFFFFF" d="M34.258,32.337l-2.657,1.608l-9.858,19.646c0,0-6.991,12.095,0.699,27.127
			c7.691,15.032,24.051,16.01,25.449,16.22C49.29,97.147,66,97.706,75.508,82.604c9.509-15.101,2.307-27.966,0.699-31.392
			c-1.608-3.426-9.019-17.478-9.019-17.478l-2.377-1.328l-0.419,2.657l9.229,18.597c0,0,3.845,6.222,3.006,15.871
			c-0.839,9.648-6.572,16.01-6.712,16.29c-0.14,0.28-8.11,10.137-21.044,9.717c-12.934-0.419-23.142-9.928-26.079-22.792
			s5.313-24.96,7.971-29.714c2.657-4.754,3.845-7.831,3.845-7.831L34.258,32.337z"/>
		<path fill="#FFFFFF" d="M42.438,48.272l-2.866-0.14c0,0-10.837,6.012-10.627,17.758c0.21,11.745,8.669,21.254,21.674,21.114
			c13.004-0.14,20.555-13.563,19.506-21.254c-1.049-7.69-1.678-10.837-10.557-17.619l-3.007,0.07l1.049,2.727
			c0,0,9.648,5.033,9.299,15.801c-0.35,10.767-8.18,18.877-16.919,18.877c-8.74,0-18.108-7.551-17.968-19.157
			c0.14-11.606,9.508-15.591,9.508-15.591L42.438,48.272z"/>
		<path fill="#FFFFFF" d="M70.614,36.665"/>
		<path fill="#FFFFFF" d="M73.691,35.266l-2.866-1.747l-0.28,2.936l9.299,18.597c0,0,8.11,21.183-10.068,37.963
			c0,0-7.341,7.41-20.345,7.41c-13.004,0-21.884-6.642-28.456-17.968c-6.572-11.326-3.356-24.82-0.07-31.112
			c3.286-6.292,7.551-14.682,7.551-14.682l-0.42-2.867l-2.657,1.538L16.15,54.141c0,0-4.964,10.906,0,24.959
			c4.964,14.052,20.346,22.932,33.28,22.932c12.933,0,28.665-7.691,34.398-25.939c0,0,3.915-11.186-1.818-24.471L73.691,35.266z"/>
		<g>
			<path fill="#FFFFFF" d="M3.083,56.851l6.227,0.553l-0.347,3.903l-0.735-0.065l0.279-3.138l-1.929-0.171l-0.241,2.716
				l-0.735-0.066l0.241-2.715l-2.829-0.251L3.083,56.851z"/>
			<path fill="#FFFFFF" d="M2.692,61.933l6.252-0.051l0.035,4.199l-0.738,0.006l-0.028-3.431l-1.915,0.016l0.027,3.213l-0.733,0.006
				l-0.027-3.213l-2.128,0.018l0.029,3.566l-0.737,0.006L2.692,61.933z"/>
			<path fill="#FFFFFF" d="M2.802,67.516l6.213-0.7l0.224,1.988c0.05,0.448,0.059,0.795,0.027,1.037
				c-0.045,0.34-0.161,0.639-0.349,0.897c-0.243,0.336-0.571,0.603-0.985,0.803c-0.414,0.199-0.898,0.331-1.451,0.393
				c-0.472,0.053-0.896,0.049-1.272-0.012c-0.376-0.061-0.693-0.159-0.949-0.292c-0.257-0.133-0.465-0.288-0.623-0.462
				c-0.158-0.175-0.288-0.393-0.389-0.654c-0.101-0.261-0.171-0.566-0.211-0.915L2.802,67.516z M3.621,68.197L3.76,69.43
				c0.043,0.38,0.115,0.675,0.215,0.883c0.1,0.208,0.227,0.368,0.38,0.481c0.215,0.159,0.493,0.271,0.834,0.335
				c0.341,0.064,0.745,0.069,1.215,0.016c0.65-0.073,1.138-0.229,1.465-0.466c0.327-0.238,0.533-0.505,0.62-0.801
				c0.062-0.214,0.067-0.549,0.016-1.003l-0.137-1.213L3.621,68.197z"/>
			<path fill="#FFFFFF" d="M3.591,73.661l6.106-1.349l0.906,4.102l-0.721,0.159l-0.74-3.351l-1.87,0.413l0.693,3.138L7.25,76.931
				l-0.693-3.138l-2.079,0.459l0.769,3.482l-0.72,0.159L3.591,73.661z"/>
			<path fill="#FFFFFF" d="M4.828,79.109l5.911-2.036l0.839,2.435c0.169,0.489,0.244,0.88,0.225,1.171
				c-0.018,0.291-0.136,0.559-0.352,0.804c-0.217,0.245-0.487,0.423-0.812,0.535c-0.419,0.144-0.816,0.14-1.191-0.013
				c-0.375-0.153-0.691-0.48-0.951-0.98c-0.033,0.227-0.081,0.406-0.144,0.54c-0.137,0.284-0.33,0.576-0.578,0.874l-1.28,1.509
				L6.18,83.035l0.979-1.15c0.282-0.335,0.493-0.603,0.634-0.805c0.141-0.202,0.23-0.371,0.268-0.505
				c0.038-0.134,0.052-0.263,0.043-0.385c-0.01-0.089-0.047-0.227-0.111-0.415l-0.29-0.842l-2.625,0.904L4.828,79.109z M8.38,78.699
				l0.538,1.562c0.114,0.332,0.241,0.579,0.379,0.741c0.138,0.162,0.305,0.263,0.502,0.305c0.196,0.041,0.39,0.029,0.58-0.037
				c0.279-0.096,0.476-0.27,0.592-0.52c0.115-0.251,0.103-0.579-0.037-0.987l-0.599-1.738L8.38,78.699z"/>
			<path fill="#FFFFFF" d="M6.755,84.649l6.589-0.811l0.371,0.74l-4.521,4.928L8.8,88.724l1.388-1.454l-1.089-2.17l-1.978,0.279
				L6.755,84.649z M9.801,84.995l0.883,1.759l1.275-1.318c0.387-0.401,0.712-0.718,0.974-0.949
				c-0.391,0.114-0.794,0.199-1.208,0.256L9.801,84.995z"/>
			<path fill="#FFFFFF" d="M9.617,90.172l0.636-0.431l4.984,0.215c0.354,0.015,0.671,0.042,0.952,0.082l-1.818-2.682l0.611-0.414
				l2.334,3.442l-0.611,0.414l-5.42-0.264l-0.561-0.045l2.08,3.069l-0.611,0.414L9.617,90.172z"/>
			<path fill="#FFFFFF" d="M12.941,94.851l4.87-3.92l0.482,0.599l-4.87,3.921L12.941,94.851z"/>
			<path fill="#FFFFFF" d="M16.45,94.445c0.743-0.725,1.505-1.107,2.287-1.147c0.782-0.04,1.458,0.233,2.03,0.819
				c0.374,0.384,0.613,0.826,0.716,1.326c0.103,0.501,0.057,1.004-0.139,1.511c-0.195,0.506-0.517,0.977-0.965,1.415
				c-0.454,0.443-0.943,0.754-1.467,0.933c-0.524,0.18-1.03,0.203-1.519,0.071c-0.489-0.132-0.909-0.379-1.261-0.739
				c-0.382-0.391-0.621-0.84-0.718-1.347c-0.097-0.506-0.047-1.011,0.15-1.513C15.762,95.271,16.057,94.829,16.45,94.445z
				 M16.994,95.021c-0.54,0.527-0.833,1.076-0.881,1.648c-0.048,0.572,0.127,1.061,0.523,1.468c0.404,0.414,0.893,0.602,1.467,0.564
				c0.574-0.038,1.149-0.339,1.726-0.901c0.364-0.356,0.626-0.723,0.786-1.102c0.16-0.38,0.208-0.753,0.142-1.119
				c-0.065-0.366-0.231-0.686-0.499-0.961c-0.38-0.389-0.851-0.583-1.413-0.583C18.285,94.035,17.668,94.363,16.994,95.021z"/>
			<path fill="#FFFFFF" d="M19.159,101.412l3.875-4.909l0.619,0.488l-0.646,5.745l3.042-3.854l0.579,0.457l-3.875,4.909
				l-0.619-0.489l0.649-5.748l-3.045,3.857L19.159,101.412z"/>
			<path fill="#FFFFFF" d="M24.097,105.171l3.268-5.328l3.581,2.196l-0.386,0.629l-2.925-1.794l-1.001,1.632l2.74,1.68l-0.384,0.625
				l-2.739-1.681l-1.113,1.814l3.04,1.864l-0.385,0.629L24.097,105.171z"/>
			<path fill="#FFFFFF" d="M36.6,111.184l1.835-5.975l0.735,0.226l-1.835,5.975L36.6,111.184z"/>
			<path fill="#FFFFFF" d="M40.283,112.177l1.152-5.392l-1.871-0.4l0.154-0.721l4.502,0.961l-0.154,0.721l-1.879-0.401l-1.151,5.392
				L40.283,112.177z"/>
			<path fill="#FFFFFF" d="M42.671,112.732l2.782-6.027l0.825,0.074l1.808,6.44l-0.872-0.078l-0.506-1.947l-2.419-0.217
				l-0.805,1.829L42.671,112.732z M44.57,110.325l1.962,0.177l-0.449-1.779c-0.137-0.54-0.235-0.983-0.295-1.328
				c-0.109,0.392-0.249,0.78-0.419,1.161L44.57,110.325z"/>
			<path fill="#FFFFFF" d="M49.071,113.152l-0.339-6.241l0.768-0.042l0.299,5.505l2.857-0.156l0.04,0.736L49.071,113.152z"/>
			<path fill="#FFFFFF" d="M53.871,112.772l-0.867-6.191l0.761-0.107l0.867,6.192L53.871,112.772z"/>
			<path fill="#FFFFFF" d="M55.677,112.58l0.713-6.601l0.805-0.193l3.768,5.528l-0.852,0.204l-1.1-1.684l-2.361,0.566l-0.179,1.99
				L55.677,112.58z M56.709,109.692l1.915-0.458l-0.993-1.543c-0.302-0.468-0.536-0.857-0.703-1.165
				c0.021,0.407,0.012,0.819-0.026,1.234L56.709,109.692z"/>
			<path fill="#FFFFFF" d="M61.906,110.989l-2.259-5.829l0.735-0.285l4.619,3.474l-1.774-4.577l0.687-0.266l2.259,5.829
				l-0.735,0.285l-4.621-3.478l1.775,4.58L61.906,110.989z"/>
			<path fill="#FFFFFF" d="M67.101,108.935l-1.049-6.553l0.726-0.398l5.09,4.338l-0.768,0.421l-1.504-1.334l-2.13,1.167l0.351,1.967
				L67.101,108.935z M67.337,105.879l1.727-0.947l-1.364-1.226c-0.415-0.373-0.743-0.685-0.984-0.939
				c0.128,0.387,0.228,0.787,0.299,1.197L67.337,105.879z"/>
			<path fill="#FFFFFF" d="M78.967,100.783l-4.486-4.356l1.526-1.572c0.269-0.277,0.488-0.474,0.658-0.592
				c0.236-0.169,0.472-0.273,0.709-0.311c0.237-0.038,0.49-0.01,0.757,0.086c0.267,0.096,0.512,0.252,0.735,0.468
				c0.382,0.371,0.595,0.797,0.64,1.279c0.045,0.482-0.218,1.017-0.79,1.607l-1.037,1.069l1.824,1.77L78.967,100.783z M77.15,97.947
				l1.046-1.077c0.346-0.356,0.519-0.678,0.522-0.967c0.002-0.288-0.126-0.558-0.385-0.809c-0.187-0.183-0.391-0.294-0.61-0.336
				c-0.219-0.042-0.42-0.011-0.603,0.091c-0.117,0.067-0.296,0.226-0.539,0.475l-1.035,1.066L77.15,97.947z"/>
			<path fill="#FFFFFF" d="M82.161,97.508l-3.559-5.601l0.509-0.653l6.392,1.966l-0.539,0.691l-1.909-0.629l-1.493,1.916
				l1.101,1.667L82.161,97.508z M81.167,94.609l1.21-1.554l-1.738-0.586c-0.529-0.178-0.954-0.335-1.276-0.472
				c0.27,0.305,0.52,0.632,0.749,0.981L81.167,94.609z"/>
			<path fill="#FFFFFF" d="M86.016,92.378l-5.314-3.29l0.404-0.653l4.687,2.902l1.506-2.431l0.627,0.388L86.016,92.378z"/>
			<path fill="#FFFFFF" d="M88.457,88.311l-5.591-2.799l0.344-0.688l4.932,2.469l1.281-2.557l0.66,0.33L88.457,88.311z"/>
			<path fill="#FFFFFF" d="M90.449,84.316l-5.038-4.32l0.296-0.773l6.688,0.017l-0.314,0.818l-2.01-0.045l-0.869,2.268l1.539,1.273
				L90.449,84.316z M88.652,81.832l0.705-1.839l-1.833-0.054c-0.557-0.016-1.01-0.042-1.358-0.079
				c0.348,0.212,0.682,0.452,1.003,0.719L88.652,81.832z"/>
			<path fill="#FFFFFF" d="M92.958,77.242l-6.634,0.385l0.236-0.798l4.784-0.16c0.383-0.013,0.739-0.014,1.068-0.002
				c-0.302-0.183-0.6-0.38-0.893-0.59l-3.911-2.793l0.222-0.752l5.352,3.953L92.958,77.242z"/>
			<path fill="#FFFFFF" d="M90.853,73.398c-1.029-0.136-1.8-0.5-2.314-1.091c-0.514-0.59-0.717-1.291-0.609-2.103
				c0.07-0.532,0.271-0.993,0.601-1.383c0.33-0.391,0.755-0.665,1.273-0.824c0.519-0.159,1.088-0.197,1.708-0.115
				c0.629,0.084,1.175,0.276,1.64,0.577c0.465,0.301,0.796,0.685,0.994,1.151c0.198,0.466,0.263,0.949,0.197,1.449
				c-0.072,0.542-0.277,1.008-0.615,1.397c-0.338,0.389-0.766,0.662-1.283,0.817C91.928,73.429,91.398,73.47,90.853,73.398z
				 M90.971,72.614c0.747,0.099,1.36-0.009,1.84-0.326c0.479-0.316,0.756-0.755,0.831-1.319c0.076-0.573-0.078-1.074-0.464-1.502
				c-0.385-0.428-0.976-0.695-1.774-0.801c-0.504-0.066-0.956-0.046-1.353,0.063c-0.397,0.109-0.719,0.302-0.967,0.579
				c-0.248,0.277-0.396,0.606-0.447,0.986c-0.071,0.539,0.066,1.03,0.414,1.472C89.397,72.208,90.037,72.49,90.971,72.614z"/>
			<path fill="#FFFFFF" d="M94.642,66.977l-6.248-0.156l0.019-0.769l5.511,0.138l0.071-2.86l0.738,0.018L94.642,66.977z"/>
			<path fill="#FFFFFF" d="M91.717,62.912c-1.035,0.073-1.864-0.128-2.487-0.602c-0.622-0.475-0.962-1.121-1.02-1.937
				c-0.038-0.535,0.065-1.027,0.31-1.475c0.245-0.449,0.605-0.804,1.081-1.064c0.477-0.26,1.026-0.412,1.65-0.457
				c0.633-0.045,1.207,0.034,1.723,0.235c0.516,0.202,0.918,0.511,1.205,0.928c0.288,0.417,0.449,0.876,0.485,1.38
				c0.039,0.546-0.068,1.043-0.322,1.492c-0.253,0.45-0.617,0.802-1.092,1.058C92.776,62.726,92.265,62.874,91.717,62.912z
				 M91.674,62.121c0.751-0.053,1.33-0.283,1.737-0.689c0.406-0.406,0.589-0.892,0.549-1.459c-0.041-0.577-0.293-1.036-0.756-1.378
				c-0.464-0.342-1.097-0.484-1.899-0.428c-0.508,0.036-0.945,0.147-1.313,0.334c-0.367,0.186-0.644,0.44-0.831,0.762
				c-0.186,0.322-0.266,0.674-0.24,1.055c0.039,0.543,0.273,0.996,0.701,1.359C90.051,62.039,90.735,62.188,91.674,62.121z"/>
		</g>
	</g>
	<g>
		<path fill="#FFFFFF" d="M113.361,20.893h14.625v2.575h-11.769v6.38h10.348v2.503h-10.348v9.556h-2.856V20.893z"/>
		<path fill="#FFFFFF" d="M131.315,20.893h15.299v2.575h-12.515v6.38h11.568v2.432h-11.568v7.125h12.73v2.503h-15.514V20.893z"/>
		<path fill="#FFFFFF" d="M150.777,20.893h8.427c2.861,0,5.08,1.025,6.656,3.076c1.408,1.851,2.111,4.22,2.111,7.11
			c0,2.232-0.416,4.249-1.246,6.051c-1.465,3.186-3.98,4.778-7.549,4.778h-8.398V20.893z M158.643,39.476
			c0.945,0,1.721-0.1,2.33-0.3c1.085-0.372,1.974-1.087,2.666-2.146c0.553-0.849,0.949-1.936,1.193-3.262
			c0.141-0.792,0.211-1.526,0.211-2.203c0-2.604-0.508-4.625-1.523-6.065s-2.649-2.16-4.904-2.16h-4.954v16.137H158.643z"/>
		<path fill="#FFFFFF" d="M172.148,20.893h15.299v2.575h-12.515v6.38h11.567v2.432h-11.567v7.125h12.73v2.503h-15.515V20.893z"/>
		<path fill="#FFFFFF" d="M191.824,20.893h9.584c1.578,0,2.879,0.234,3.903,0.701c1.944,0.897,2.917,2.552,2.917,4.964
			c0,1.259-0.261,2.289-0.782,3.09c-0.521,0.801-1.251,1.445-2.188,1.932c0.823,0.334,1.442,0.772,1.858,1.316
			c0.417,0.543,0.648,1.426,0.696,2.646l0.101,2.818c0.028,0.801,0.096,1.397,0.201,1.788c0.172,0.668,0.479,1.097,0.918,1.288
			v0.472h-3.502c-0.096-0.181-0.172-0.415-0.229-0.701c-0.057-0.286-0.105-0.839-0.144-1.659l-0.172-3.505
			c-0.065-1.374-0.562-2.294-1.492-2.761c-0.53-0.257-1.362-0.386-2.496-0.386h-6.316v9.013h-2.856V20.893z M201.1,30.521
			c1.303,0,2.333-0.267,3.092-0.801c0.758-0.534,1.138-1.497,1.138-2.89c0-1.498-0.53-2.518-1.592-3.062
			c-0.567-0.286-1.325-0.429-2.274-0.429h-6.783v7.182H201.1z"/>
		<path fill="#FFFFFF" d="M218.859,20.893h3.224l7.652,21.015h-3.129l-2.201-6.294h-8.271l-2.286,6.294h-2.928L218.859,20.893z
			 M223.594,33.296l-3.246-9.284l-3.372,9.284H223.594z"/>
		<path fill="#FFFFFF" d="M230.746,39.548l12.964-16.151h-12.017v-2.503h15.701v2.446l-13.042,16.065h13.042v2.503h-16.648V39.548z"
			/>
		<path fill="#FFFFFF" d="M250.91,20.893h2.885v21.015h-2.885V20.893z"/>
		<path fill="#FFFFFF" d="M275.797,23.897c1.397,1.859,2.096,4.239,2.096,7.138c0,3.138-0.799,5.747-2.396,7.825
			c-1.876,2.442-4.55,3.663-8.023,3.663c-3.243,0-5.793-1.068-7.649-3.205c-1.655-2.06-2.482-4.664-2.482-7.811
			c0-2.842,0.708-5.274,2.124-7.296c1.817-2.594,4.506-3.891,8.065-3.891C271.252,20.321,274.008,21.513,275.797,23.897z
			 M273.279,37.292c1.124-1.799,1.687-3.868,1.687-6.207c0-2.472-0.648-4.462-1.944-5.97c-1.297-1.508-3.069-2.262-5.317-2.262
			c-2.182,0-3.962,0.747-5.34,2.241c-1.377,1.494-2.066,3.696-2.066,6.607c0,2.329,0.591,4.293,1.772,5.892
			c1.182,1.599,3.098,2.398,5.748,2.398C270.334,39.991,272.155,39.092,273.279,37.292z"/>
		<path fill="#FFFFFF" d="M281.294,20.893h3.364l10.514,16.979V20.893h2.727v21.015h-3.208l-10.67-16.959v16.959h-2.727V20.893z"/>
		<path fill="#FFFFFF" d="M302.793,20.893h15.299v2.575h-12.515v6.38h11.567v2.432h-11.567v7.125h12.73v2.503h-15.515V20.893z"/>
	</g>
	<g>
		<path fill="#FFFFFF" d="M113.734,49.246h2.885v21.016h-2.885V49.246z"/>
		<path fill="#FFFFFF" d="M137.464,49.246v2.503h-7.104v18.512h-2.885V51.75h-7.104v-2.503H137.464z"/>
		<path fill="#FFFFFF" d="M144.958,49.246h3.224l7.652,21.016h-3.129l-2.201-6.295h-8.271l-2.287,6.295h-2.928L144.958,49.246z
			 M149.694,61.648l-3.246-9.284l-3.373,9.284H149.694z"/>
		<path fill="#FFFFFF" d="M159.292,49.246h2.856v18.512h10.579v2.504h-13.435V49.246z"/>
		<path fill="#FFFFFF" d="M177.167,49.246h2.885v21.016h-2.885V49.246z"/>
		<path fill="#FFFFFF" d="M191.722,49.246h3.224l7.652,21.016h-3.129l-2.201-6.295h-8.271l-2.286,6.295h-2.928L191.722,49.246z
			 M196.457,61.648l-3.246-9.284l-3.372,9.284H196.457z"/>
		<path fill="#FFFFFF" d="M206.056,49.246h3.364l10.514,16.979V49.246h2.727v21.016h-3.208l-10.67-16.96v16.96h-2.727V49.246z"/>
		<path fill="#FFFFFF" d="M234.317,49.246h3.224l7.652,21.016h-3.129l-2.201-6.295h-8.271l-2.286,6.295h-2.928L234.317,49.246z
			 M239.052,61.648l-3.246-9.284l-3.372,9.284H239.052z"/>
	</g>
	<g>
		<path fill="#FFFFFF" d="M113.361,77.023h9.434c1.865,0,3.371,0.526,4.518,1.58c1.146,1.055,1.72,2.535,1.72,4.441
			c0,1.641-0.512,3.069-1.535,4.285c-1.023,1.217-2.589,1.824-4.698,1.824h-6.583v8.884h-2.856V77.023z M124.439,79.912
			c-0.627-0.295-1.487-0.443-2.579-0.443h-5.643v7.282h5.643c1.273,0,2.306-0.272,3.099-0.815c0.793-0.544,1.19-1.502,1.19-2.875
			C126.149,81.516,125.578,80.466,124.439,79.912z"/>
		<path fill="#FFFFFF" d="M137.56,77.023h3.224l7.652,21.015h-3.129l-2.201-6.294h-8.271l-2.287,6.294h-2.928L137.56,77.023z
			 M142.296,89.426l-3.246-9.284l-3.373,9.284H142.296z"/>
		<path fill="#FFFFFF" d="M151.894,77.023h2.856v18.512h10.578v2.503h-13.434V77.023z"/>
		<path fill="#FFFFFF" d="M169.124,77.023h2.856v18.512h10.578v2.503h-13.434V77.023z"/>
		<path fill="#FFFFFF" d="M192.505,77.023h3.224l7.652,21.015h-3.129l-2.201-6.294h-8.271l-2.286,6.294h-2.928L192.505,77.023z
			 M197.241,89.426l-3.246-9.284l-3.372,9.284H197.241z"/>
		<path fill="#FFFFFF" d="M206.344,77.023l6.057,17.896l5.984-17.896h3.2l-7.692,21.015h-3.028l-7.678-21.015H206.344z"/>
		<path fill="#FFFFFF" d="M242.524,80.027c1.397,1.859,2.096,4.239,2.096,7.139c0,3.138-0.799,5.746-2.396,7.824
			c-1.876,2.442-4.55,3.663-8.023,3.663c-3.243,0-5.793-1.067-7.649-3.204c-1.655-2.061-2.482-4.664-2.482-7.812
			c0-2.842,0.708-5.274,2.124-7.296c1.817-2.594,4.506-3.891,8.065-3.891C237.979,76.451,240.735,77.643,242.524,80.027z
			 M240.005,93.422c1.124-1.799,1.687-3.867,1.687-6.207c0-2.472-0.648-4.461-1.944-5.97c-1.297-1.509-3.069-2.263-5.317-2.263
			c-2.182,0-3.962,0.748-5.34,2.241c-1.377,1.493-2.066,3.696-2.066,6.607c0,2.329,0.591,4.293,1.772,5.892
			c1.182,1.6,3.098,2.398,5.748,2.398C237.061,96.121,238.881,95.222,240.005,93.422z"/>
		<path fill="#FFFFFF" d="M248.904,77.023h2.855v18.512h10.578v2.503h-13.434V77.023z"/>
		<path fill="#FFFFFF" d="M283.497,80.027c1.397,1.859,2.096,4.239,2.096,7.139c0,3.138-0.799,5.746-2.396,7.824
			c-1.876,2.442-4.55,3.663-8.023,3.663c-3.243,0-5.793-1.067-7.649-3.204c-1.655-2.061-2.482-4.664-2.482-7.812
			c0-2.842,0.708-5.274,2.124-7.296c1.817-2.594,4.506-3.891,8.065-3.891C278.952,76.451,281.708,77.643,283.497,80.027z
			 M280.979,93.422c1.124-1.799,1.687-3.867,1.687-6.207c0-2.472-0.648-4.461-1.944-5.97c-1.297-1.509-3.069-2.263-5.317-2.263
			c-2.182,0-3.962,0.748-5.34,2.241c-1.377,1.493-2.066,3.696-2.066,6.607c0,2.329,0.591,4.293,1.772,5.892
			c1.182,1.6,3.098,2.398,5.748,2.398C278.034,96.121,279.855,95.222,280.979,93.422z"/>
	</g>
</g>
</svg>
